<?xml version="1.0" encoding="UTF-8"?>
<svg width="116px" height="28px" viewBox="0 0 116 28" version="1.1" xmlns="http://www.w3.org/2000/svg" xmlns:xlink="http://www.w3.org/1999/xlink">
    <!-- Generator: Sketch 52 (66869) - http://www.bohemiancoding.com/sketch -->
    <title>Norton</title>
    <desc>Created with Sketch.</desc>
    <g id="Sections" stroke="none" stroke-width="1" fill="none" fill-rule="evenodd">
        <g id="Sections-/-Clients-/-Brands-&amp;-Testimonial-/-Light" transform="translate(-389.000000, -347.000000)" fill="#1A1A1A" fill-rule="nonzero">
            <g id="Outer">
                <g id="Inner" transform="translate(150.000000, 150.000000)">
                    <g id="Content" transform="translate(0.000000, 195.000000)">
                        <g id="Brands" transform="translate(50.000000, 0.000000)">
                            <g id="Row">
                                <g id="Norton" transform="translate(189.000000, 2.000000)">
                                    <path d="M3.0348,8.87972 C13.26132,5.5274 14.33484,8.7404 14.33484,13.48808 L14.33484,27.03236 L11.20608,27.03236 L11.20608,14.55944 C11.20608,10.69304 10.87884,9.43808 3.12876,12.23096 L3.12876,27.03452 L0,27.03452 L0,7.4822 L2.56716,7.4822 L3.0348,8.87972 Z M36.56016,17.25944 C36.56016,24.28808 35.2026,27.5 28.71504,27.5 C22.22424,27.5 20.86884,24.287 20.86884,17.25944 C20.86884,10.27508 22.22424,7.01996 28.71504,7.01996 C35.2026,7.0178 36.56016,10.27508 36.56016,17.25944 Z M33.43032,17.25944 C33.43032,11.48684 32.16996,10.13576 28.71504,10.13576 C25.25904,10.13576 23.9976,11.48468 23.9976,17.25944 C23.9976,23.08064 25.25904,24.38096 28.71504,24.38096 C32.16996,24.37988 33.43032,23.07632 33.43032,17.25944 Z M53.27424,10.55588 C51.36156,10.64876 49.86576,10.97384 46.69164,12.18452 L46.69164,27.03236 L43.56288,27.03236 L43.56288,7.4822 L46.13112,7.4822 L46.59768,8.8322 C49.167,7.90232 50.89392,7.4822 53.27532,7.4822 L53.27424,10.55588 Z M71.48412,26.474 C62.70696,28.34024 61.7706,25.45232 61.7706,21.02972 L61.7706,10.60232 L59.346,10.60232 L59.346,7.48328 L61.7706,7.48328 L61.7706,0.5 L64.89936,0.5 L64.89936,7.4822 L70.0812,7.4822 L70.0812,10.60232 L64.89936,10.60232 L64.89936,20.14412 C64.89936,23.49644 65.36916,24.56672 70.92144,23.49644 L71.48412,26.474 Z M94.22244,17.25944 C94.22244,24.28808 92.86488,27.5 86.37624,27.5 C79.88436,27.5 78.53112,24.287 78.53112,17.25944 C78.53112,10.27508 79.88436,7.01996 86.37624,7.01996 C92.86488,7.0178 94.22244,10.27508 94.22244,17.25944 Z M91.09584,17.25944 C91.09584,11.48684 89.83656,10.13576 86.37948,10.13576 C82.92672,10.13576 81.66528,11.48468 81.66528,17.25944 C81.66528,23.08064 82.92672,24.38096 86.37948,24.38096 C89.83656,24.37988 91.09584,23.07632 91.09584,17.25944 Z M104.25996,8.87972 C114.48756,5.52848 115.56,8.7404 115.56,13.487 L115.56,27.03236 L112.43232,27.03236 L112.43232,14.55944 C112.43232,10.69304 112.10616,9.43808 104.355,12.23096 L104.355,27.03452 L101.22732,27.03452 L101.22732,7.4822 L103.79664,7.4822 L104.25996,8.87972 Z" id="icons/Client_01"></path>
                                </g>
                            </g>
                        </g>
                    </g>
                </g>
            </g>
        </g>
    </g>
</svg>