<?xml version="1.0" encoding="UTF-8"?>
<svg width="123px" height="21px" viewBox="0 0 123 21" version="1.1" xmlns="http://www.w3.org/2000/svg" xmlns:xlink="http://www.w3.org/1999/xlink">
    <!-- Generator: Sketch 52 (66869) - http://www.bohemiancoding.com/sketch -->
    <title>Friday</title>
    <desc>Created with Sketch.</desc>
    <g id="Sections" stroke="none" stroke-width="1" fill="none" fill-rule="evenodd">
        <g id="Sections-/-Clients-/-Brands-&amp;-Testimonial-/-Light" transform="translate(-744.000000, -351.000000)" fill="#1A1A1A" fill-rule="nonzero">
            <g id="Outer">
                <g id="Inner" transform="translate(150.000000, 150.000000)">
                    <g id="Content" transform="translate(0.000000, 195.000000)">
                        <g id="Brands" transform="translate(50.000000, 0.000000)">
                            <g id="Row">
                                <g id="Friday" transform="translate(544.000000, 6.000000)">
                                    <path d="M0,20.15776 L0,0 L13.44,0 L13.44,3.444 L3.8864,3.444 L3.8864,8.62624001 L11.82832,8.62624001 L11.82832,11.81152 L3.88752,11.81152 L3.88752,20.16 L0,20.15776 Z M20.16,20.16 L20.16,0 L29.27008,0 C30.21872,0 31.09792,0.19712 31.90208,0.588 C32.687896,0.955678986 33.3926371,1.47614422 33.9752,2.11904 C34.5539383,2.75089782 35.016512,3.48002005 35.3416,4.2728 C35.66864,5.0792 35.82992,5.8856 35.82992,6.69648 C35.82992,8.01024001 35.50064,9.19408001 34.82752,10.25808 C34.1963038,11.3021133 33.2466243,12.115956 32.11824,12.57984 L36.96,20.16 L32.43184,20.16 L28.11312,13.4064 L24.16624,13.4064 L24.16624,20.16 L20.16,20.16 Z M24.16736,9.96240001 L29.1872,9.96240001 C29.55232,9.96240001 29.89728,9.88176001 30.21424,9.70592001 C30.53456,9.54688001 30.8112,9.31056001 31.04304,9.01600001 C31.27824,8.72032001 31.45968,8.38432001 31.59632,7.97552001 C31.7296,7.58016001 31.79792,7.15120001 31.79792,6.69872 C31.807276,5.83887529 31.5021783,5.00523354 30.94,4.35456 C30.6901601,4.06945838 30.3834272,3.83979026 30.03952,3.68032 C29.70352,3.5224 29.3608,3.44512 29.01248,3.44512 L24.16736,3.44512 L24.16736,9.96240001 Z M43.68,20.16 L43.68,0 L47.04,0 L47.04,20.16 L43.68,20.16 Z M56,20.16 L56,0 L63.12656,0 C64.73376,0 66.13488,0.26768 67.34112,0.788480001 C68.5496,1.32048 69.55872,2.04512 70.3684801,2.95232 C71.1882691,3.87894173 71.8078741,4.96487097 72.1884801,6.14208 C72.5928001,7.36512001 72.8000001,8.66432001 72.8000001,10.04416 C72.8000001,11.57856 72.5760001,12.97296 72.1145601,14.2128 C71.7016455,15.3965221 71.0410951,16.478603 70.1769601,17.38688 C69.320758,18.2814924 68.2806082,18.9796385 67.12832,19.43312 C65.94112,19.92256 64.60384,20.16 63.12768,20.16 L56,20.16 Z M68.95168,10.04416 C68.95168,9.09216001 68.83184,8.19280001 68.56752,7.38304001 C68.3358309,6.61226742 67.9510966,5.89612837 67.43632,5.27744 C66.9369901,4.68778716 66.3074017,4.22230583 65.59728,3.91776 C64.86704,3.60192 64.04384,3.444 63.12656,3.444 L59.81136,3.444 L59.81136,16.71712 L63.12656,16.71712 C64.06624,16.71712 64.90624,16.55696 65.63312,16.2064 C66.36112,15.8704 66.95808,15.4 67.45312,14.8064 C67.9585729,14.1824013 68.3371414,13.4655941 68.56752,12.69632 C68.83296,11.87424 68.95168,11.00512 68.95168,10.04416 Z M78.4000001,20.16 L86.3352001,0 L89.5216001,0 L97.4400001,20.16 L93.2993601,20.16 L91.4513601,15.12448 L84.3864001,15.12448 L82.5384001,20.16 L78.4000001,20.16 Z M87.9300801,4.23248 L85.0348801,12.38272 L90.7435201,12.38272 L87.9300801,4.23248 Z M103.8128,0 L108.61648,9.70816001 L113.51648,0 L117.6,0 L110.50816,13.11296 L110.50816,20.16 L106.7472,20.16 L106.7472,13.05584 L99.6800001,0 L103.8128,0 Z M122.08,17.91216 C122.07815,19.1528405 121.072841,20.1581496 119.83216,20.16 C118.59344,20.16 117.6,19.152 117.6,17.91216 C117.6,16.67568 118.59344,15.68 119.83216,15.68 C121.06864,15.68 122.08,16.67568 122.08,17.91216 Z" id="icons/Client_05"></path>
                                </g>
                            </g>
                        </g>
                    </g>
                </g>
            </g>
        </g>
    </g>
</svg>