<?xml version="1.0" encoding="UTF-8"?>
<svg width="119px" height="32px" viewBox="0 0 119 32" version="1.1" xmlns="http://www.w3.org/2000/svg" xmlns:xlink="http://www.w3.org/1999/xlink">
    <!-- Generator: Sketch 52 (66869) - http://www.bohemiancoding.com/sketch -->
    <title>Vorbes</title>
    <desc>Created with Sketch.</desc>
    <g id="Sections" stroke="none" stroke-width="1" fill="none" fill-rule="evenodd">
        <g id="Sections-/-Clients-/-Brands-&amp;-Testimonial-/-Light" transform="translate(-565.000000, -345.000000)" fill="#1A1A1A" fill-rule="nonzero">
            <g id="Outer">
                <g id="Inner" transform="translate(150.000000, 150.000000)">
                    <g id="Content" transform="translate(0.000000, 195.000000)">
                        <g id="Brands" transform="translate(50.000000, 0.000000)">
                            <g id="Row">
                                <g id="Vorbes" transform="translate(365.000000, 0.000000)">
                                    <path d="M24.9114783,2.55043478 C25.9422017,2.55840129 26.9727589,2.51981124 28,2.43478261 L28,3.22243478 C27.3243478,3.48173913 26.6584348,3.98573913 26.0010435,4.73565218 C25.3412174,5.48556522 24.7593044,6.54834783 24.2577391,7.92278261 L15.7043478,30.4347826 C15.4,30.4104348 14.924,30.3982609 14.2787826,30.3982609 C13.6554783,30.3982609 13.2013913,30.4104348 12.914087,30.4347826 L2.55408696,5.74608696 C2.212,4.87443479 1.80904348,4.24139131 1.35739131,3.8506087 C0.902086957,3.46104348 0.448,3.25165218 7.81597009e-14,3.22365218 L7.81597009e-14,2.43721739 C1.62643478,2.51391305 3.68382609,2.55286957 6.17947827,2.55286957 C8.93808696,2.55286957 10.9906087,2.51391305 12.3394783,2.43721739 L12.3394783,3.22365218 C11.3193044,3.2626087 10.5913044,3.38069565 10.1530435,3.57913044 C9.70626088,3.78243479 9.48834783,4.15008696 9.48834783,4.68939131 C9.48834783,5.10086957 9.65026088,5.71443479 9.98382609,6.53495653 L17.1335652,24.1944348 L22.1236522,11.1196522 C22.8747826,9.05495653 23.2521739,7.44800001 23.2521739,6.30486957 C23.2521739,5.25304348 22.9648696,4.48608696 22.3878261,4.00643479 C21.8156522,3.52313044 20.9659131,3.26504348 19.8459131,3.22486957 L19.8459131,2.43843478 C21.6659131,2.51147826 23.3532174,2.55043478 24.9114783,2.55043478 Z M41.2330435,12.2226087 C42.9593044,13.8782609 43.826087,16.5078261 43.826087,20.104 C43.826087,23.688 42.9629566,26.3066087 41.2330435,27.9561739 C39.5043479,29.6057392 37.1243479,30.4347826 34.0942609,30.4347826 C31.0678261,30.4347826 28.6866087,29.6081739 26.9481739,27.9573913 C25.2170435,26.3066087 24.3478261,23.6867826 24.3478261,20.104 C24.3478261,16.5212174 25.2158261,13.8953044 26.9481739,12.2323478 C28.6829565,10.5706087 31.0678261,9.73913044 34.0942609,9.73913044 C37.1243479,9.73913044 39.5043479,10.5657391 41.2330435,12.2226087 Z M31.3685218,12.8556522 C30.6904348,14.4382609 30.3459131,16.8547826 30.3459131,20.104 C30.3459131,23.3422609 30.6867826,25.7490435 31.3685218,27.3194783 C32.0478261,28.8899131 32.9608696,29.6739131 34.0954783,29.6739131 C35.2471305,29.6739131 36.1577392,28.8923478 36.8224348,27.3267826 C37.4932174,25.766087 37.8231305,23.3556522 37.8231305,20.104 C37.8231305,16.8389565 37.4932174,14.4212174 36.8224348,12.8434783 C36.1553044,11.2669565 35.2471305,10.4793044 34.0954783,10.4793044 C32.9608696,10.4793044 32.0466087,11.2706087 31.3685218,12.8544348 L31.3685218,12.8556522 Z M55.3474783,10.7763478 C56.2676803,10.0910638 57.3873377,9.72668334 58.5346087,9.73913044 C59.3246957,9.73913044 59.988174,9.91078262 60.5213913,10.2553044 C61.0570435,10.5986087 61.4526957,11.0344348 61.7046957,11.5761739 C61.9627827,12.1166957 62.0869566,12.6937391 62.0869566,13.3194783 C62.0869566,14.2836522 61.8069566,15.070087 61.2457392,15.6812174 C60.688174,16.2899131 59.9492174,16.5942609 59.030087,16.5942609 C58.1365218,16.5942609 57.4328696,16.3690435 56.9166957,15.9198261 C56.3993044,15.4693913 56.14,14.8606957 56.14,14.1022609 C56.14,12.8593044 56.7146087,11.8427826 57.8613913,11.0563478 C57.7040219,11.0199722 57.5432391,11.0003844 57.3817392,10.9979131 C57.2027826,10.9979131 57.0006957,11.0295652 56.7706087,11.0916522 C56.1095653,11.1939131 55.5008696,11.5104348 54.9554783,12.0375652 C54.4016705,12.5750165 53.9623084,13.218945 53.6638261,13.9306087 C53.3631486,14.6075308 53.2036676,15.3386576 53.1951305,16.0793044 L53.1951305,26.4198261 C53.1951305,27.6250435 53.4873044,28.4589565 54.0753044,28.9215652 C54.6608696,29.3841739 55.5994783,29.6154783 56.8874783,29.6154783 L56.8874783,30.4347826 C53.6236522,30.3373913 51.5431305,30.2862609 50.6495653,30.2862609 C49.8168696,30.2862609 47.9530435,30.3373913 45.0434783,30.4347826 L45.0434783,29.6154783 C45.6643479,29.6154783 46.1634783,29.5326957 46.5250435,29.3695652 C46.8902609,29.2027826 47.1495653,28.9191305 47.3078261,28.5113044 C47.466087,28.1059131 47.5488696,27.5398261 47.5488696,26.8191305 L47.5488696,14.5234783 C47.5488696,13.3182609 47.3626087,12.4417391 46.9949566,11.906087 C46.6212174,11.3655652 45.9747826,11.0965217 45.0446957,11.0965217 L45.0446957,10.2735652 C45.8525143,10.3485101 46.6633222,10.3866945 47.4746087,10.388 C49.7815653,10.388 51.6892174,10.2102609 53.1963479,9.85600001 L53.1963479,13.4716522 C53.6954783,12.3674783 54.4137392,11.4690435 55.3474783,10.7763478 Z M71.1273044,10.9346087 C72.1474783,10.2893913 73.3271305,9.96800001 74.6699131,9.96800001 C76.0126957,9.96800001 77.202087,10.3478261 78.2417392,11.1086957 C79.2765218,11.8707826 80.092174,13.0187826 80.6813914,14.5539131 C81.2718261,16.0914783 81.5652174,17.9808696 81.5652174,20.2269565 C81.5652174,22.8613913 81.1756522,25.0234783 80.4026088,26.7156522 C79.6283479,28.4041739 78.5813914,29.6373913 77.2714783,30.414087 C75.9566957,31.1883478 74.4787827,31.5754783 72.8219131,31.5754783 C71.0554783,31.5754783 69.636,31.1104348 68.5513044,30.1803478 C68.3537026,30.1642564 68.15546,30.1573504 67.9572174,30.1596522 C67.1269566,30.1596522 66.3113044,30.3033044 65.5224348,30.5772174 C64.7335653,30.8523478 64.1005218,31.2114783 63.6306087,31.6521739 L63.0499131,31.2833044 C63.2264348,30.6137392 63.3116522,29.8747826 63.3116522,29.0761739 L63.3116522,4.76 C63.3116522,3.53530435 63.1266087,2.64782609 62.7638261,2.1 C62.3986087,1.55217391 61.7655653,1.27826087 60.8695653,1.27826087 L60.8695653,0.444347826 C61.668174,0.524695653 62.4570435,0.561217392 63.2410435,0.561217392 C65.4749566,0.561217392 67.3363479,0.373739131 68.8154783,-1.77635684e-15 L68.8154783,13.7443478 C69.3365218,12.516 70.1083479,11.5810435 71.1285218,10.9346087 L71.1273044,10.9346087 Z M71.6495653,30.7391305 C74.4227827,30.7391305 75.8093914,27.4241739 75.8093914,20.7881739 C75.8093914,17.5389565 75.5208696,15.204 74.9413914,13.7918261 C74.3619131,12.3784348 73.5194783,11.6711304 72.414087,11.6711304 C71.5813914,11.6711304 70.8266087,11.9803478 70.1473044,12.6 C69.4692174,13.2196522 69.0273044,14.0608696 68.8142609,15.1187826 L68.8142609,29.6751305 C69.648174,30.3836522 70.5953044,30.7391305 71.6495653,30.7391305 Z M89.9408696,19.936 C89.9408696,21.6196522 90.1843479,23.0123478 90.6676522,24.1177391 C91.1546088,25.2231305 91.7876522,26.0339131 92.5594783,26.5464348 C93.3386088,27.0601739 94.1640001,27.3146087 95.0514783,27.3146087 C97.2147827,27.3146087 98.9507827,26.3017391 100.257044,24.2723478 L100.946087,24.4951305 C100.617391,25.5299131 100.102435,26.5038261 99.4024349,27.3973913 C98.6844599,28.3075562 97.7810356,29.0545309 96.752174,29.5886957 C95.6808696,30.1486957 94.4610435,30.4347826 93.0914783,30.4347826 C91.2800001,30.4347826 89.6973914,30.0634783 88.3314783,29.3196522 C86.9704348,28.5770435 85.9027827,27.4497392 85.1419131,25.9353044 C84.3798261,24.422087 84.0000001,22.54 84.0000001,20.2890435 C84.0000001,17.9906087 84.4066088,16.0525218 85.2320001,14.4747826 C86.0513044,12.8970435 87.1822609,11.7113044 88.632174,10.9248696 C90.0796522,10.1335652 91.7486957,9.73913044 93.644174,9.73913044 C98.5770435,9.73913044 101.043478,12.5452174 101.043478,18.1586087 L89.9920001,18.1586087 C89.9603479,18.5250435 89.9408696,19.1179131 89.9408696,19.936 Z M95.4653914,12.4977391 C95.0125218,11.1878261 94.3210435,10.5316522 93.3994783,10.5316522 C92.4645218,10.5316522 91.6914783,11.0916522 91.0645218,12.2116522 C90.4436522,13.3292174 90.060174,15.0688696 89.920174,17.4293913 L96.0886957,17.4293913 C96.1288696,15.4535652 95.9206957,13.810087 95.4653914,12.4989565 L95.4653914,12.4977391 Z M106.102957,27.7102609 C106.93687,28.9446957 108.115304,29.5631305 109.643131,29.5631305 C110.393044,29.5631305 111.032174,29.3379131 111.566609,28.8850435 C112.101044,28.4370435 112.365217,27.7565218 112.365217,26.8544348 C112.365217,26.1507826 112.205739,25.5189565 111.885565,24.9626087 C111.566847,24.4045754 111.157488,23.9034702 110.674261,23.4798261 C110.187304,23.0513044 109.45687,22.4535652 108.475652,21.7024348 C107.561123,20.9806469 106.668768,20.2311986 105.799826,19.4551304 C105.192168,18.8945134 104.676578,18.2417069 104.272,17.5206957 C103.844696,16.7683478 103.630435,15.9246957 103.630435,14.9702609 C103.630435,13.8831304 103.932348,12.942087 104.531304,12.152 C105.130261,11.3606957 105.937391,10.7617391 106.951478,10.3502609 C108.003882,9.93516988 109.126665,9.72764523 110.257913,9.73913044 C111.231826,9.73913044 112.127826,9.8572174 112.941044,10.0946087 C113.756696,10.3283478 114.392174,10.6010435 114.854783,10.9090435 C115.108,11.0819131 115.332,11.1646957 115.530435,11.1646957 C116.007652,11.1646957 116.307131,10.702087 116.431304,9.77565218 L117.278609,9.77565218 C117.175131,11.0490435 117.131304,13.2744348 117.131304,16.4518261 L116.286435,16.4518261 C116.061217,14.7949565 115.556,13.4010435 114.770783,12.270087 C113.991652,11.1379131 112.853391,10.5718261 111.366957,10.5718261 C110.603652,10.5718261 109.976696,10.7873044 109.486087,11.2170435 C109.001565,11.6504348 108.755652,12.2469565 108.755652,12.998087 C108.755652,13.8514783 109.042957,14.588 109.621217,15.204 C110.197044,15.8236522 110.890957,16.414087 111.702957,16.9850435 C112.518609,17.556 113.112696,17.9808696 113.485217,18.2633044 C114.533391,19.0436522 115.370957,19.7241739 115.990609,20.3048696 C116.60078,20.8738982 117.11215,21.5403671 117.503826,22.2770435 C117.888522,23.016 118.086957,23.8608696 118.086957,24.814087 C118.086957,25.9255652 117.755826,26.9067826 117.098435,27.7601739 C116.441044,28.6123478 115.553565,29.2721739 114.442087,29.7372174 C113.326957,30.2022609 112.104696,30.4347826 110.781391,30.4347826 C109.415478,30.4347826 108.227304,30.1681739 107.213217,29.6349565 C106.629767,29.3313224 106.02803,29.0642 105.411478,28.8351305 C105.350013,28.8135746 105.285476,28.8020647 105.220348,28.8010435 C104.806435,28.8010435 104.511826,29.2514783 104.323131,30.1547826 L103.478261,30.1547826 C103.575652,28.7085218 103.625565,26.18 103.625565,22.5704348 L104.470435,22.5704348 C104.728522,24.758087 105.270261,26.4697391 106.101739,27.7102609 L106.102957,27.7102609 Z" id="Combined-Shape"></path>
                                </g>
                            </g>
                        </g>
                    </g>
                </g>
            </g>
        </g>
    </g>
</svg>