<?xml version="1.0" encoding="UTF-8"?>
<svg width="129px" height="28px" viewBox="0 0 129 28" version="1.1" xmlns="http://www.w3.org/2000/svg" xmlns:xlink="http://www.w3.org/1999/xlink">
    <!-- Generator: Sketch 52 (66869) - http://www.bohemiancoding.com/sketch -->
    <title>NOreal</title>
    <desc>Created with Sketch.</desc>
    <g id="Sections" stroke="none" stroke-width="1" fill="none" fill-rule="evenodd">
        <g id="Sections-/-Clients-/-Brands-&amp;-Testimonial-/-Light" transform="translate(-200.000000, -347.000000)" fill="#1A1A1A" fill-rule="nonzero">
            <g id="Outer">
                <g id="Inner" transform="translate(150.000000, 150.000000)">
                    <g id="Content" transform="translate(0.000000, 195.000000)">
                        <g id="Brands" transform="translate(50.000000, 0.000000)">
                            <g id="Row">
                                <g id="NOreal" transform="translate(0.000000, 2.000000)">
                                    <path d="M26.77024,0.875840001 C26.77024,1.0024 26.67504,1.07856 26.48464,1.10432 C26.29424,1.13008 25.61552,1.16816 24.44736,1.21856 C23.76192,1.24432 23.3688,1.3832 23.26688,1.63744 C23.16608,1.78976 23.12688,2.60176 23.15264,4.07456 L23.19072,8.49184001 C23.21648,11.43744 23.2288,15.2824 23.2288,20.03008 L23.2288,26.50368 C23.2288,26.93488 23.1392,27.15104 22.96224,27.15104 C22.68224,27.15104 20.83648,25.04992 17.4216,20.8488 C14.00672,16.64768 10.25584,11.84288 6.16896,6.43552 L6.16896,9.25344001 C6.16896,10.21776 6.18128,11.05664 6.20704,11.76672 L6.20704,24.90432 C6.20704,25.43744 6.37168,25.76672 6.70208,25.8944 C7.23520001,26.09712 7.85680001,26.19904 8.56800001,26.19904 C9.40576001,26.19904 9.87504001,26.26288 9.97696001,26.38944 C10.00272,26.4152 10.01504,26.4656 10.01504,26.54176 C10.01504,26.74448 9.82464001,26.8464 9.44384001,26.8464 C9.21536001,26.8464 9.02496001,26.83408 8.87264001,26.80832 C7.92097006,26.7717818 6.96890474,26.7463934 6.01664,26.73216 C5.12848,26.73216 3.96032,26.75792 2.51328,26.80832 C1.80208,26.83408 1.49744,26.8464 1.59936,26.8464 C1.21856,26.8464 1.02816,26.7456 1.02816,26.54176 C1.02816,26.36368 1.58704,26.23712 2.70368,26.16096 C3.9984,26.06016 4.74768,25.85632 4.9504,25.55168 C5.07696,25.34896 5.1408,24.43504 5.1408,22.80992 L5.1408,7.15904001 C5.1408,5.55968 5.11504,4.59424 5.06464,4.26496 C4.91232,3.14832 4.46768,2.3352 3.73184,1.82784 C3.17296,1.44704 2.13248,1.23088 0.60928,1.18048 C0.20272,1.15472 0,1.04048 0,0.837760001 C0,0.60928 0.17808,0.49504 0.53312,0.49504 C0.68544,0.49504 1.23088,0.5208 2.17056,0.5712 C2.62752,0.59696 3.31296,0.60928 4.22688,0.60928 C6.10512,0.60928 7.62832001,0.58352 8.79648001,0.53312 L22.16256,17.7072 L22.16256,2.62752 C22.16256,2.01824 22.06176,1.63072 21.85792,1.46608 C21.6552,1.30144 21.22288,1.20624 20.5632,1.18048 L18.92576,1.10432 C18.62112,1.07856 18.4688,0.990080001 18.4688,0.837760001 C18.4688,0.63504 18.69728,0.53312 19.15424,0.53312 L19.992,0.53312 C20.14432,0.53312 20.39856,0.5208 20.7536,0.49504 L21.62944,0.49504 C24.19424,0.49504 25.69168,0.50736 26.12288,0.53312 C26.55408,0.55888 26.77024,0.67312 26.77024,0.875840001 Z M36.93312,5.21696 C36.93312,7.57792001 36.03264,9.29152001 34.22944,10.35776 C33.0624,11.0432 31.98272,11.38592 30.99264,11.38592 C30.81568,11.38592 30.72608,11.32208 30.72608,11.19552 C30.72608,11.06896 30.82688,10.97936 31.03072,10.92896 C33.9248,10.24352 35.37184,8.75840001 35.37184,6.4736 C35.37184,5.07696 34.8768,4.088 33.88672,3.50336 C33.88672,4.92576 33.26512,5.63584 32.0208,5.63584 C31.31072,5.63584 30.7328,5.40736 30.28816,4.9504 C29.84464,4.49344 29.62176,3.9088 29.62176,3.19872 C29.62176,2.36096 29.9208,1.68784 30.51776,1.18048 C31.1136,0.67312 31.90656,0.41888 32.89664,0.41888 C34.13984,0.41888 35.12544,0.850080001 35.84784,1.7136 C36.57136,2.576 36.93424,3.74416 36.93424,5.21696 L36.93312,5.21696 Z M65.67904,13.67072 C65.67904,17.47872 64.49184,20.69648 62.11856,23.324 C59.74528,25.95152 56.83216,27.26528 53.3792,27.26528 C50.00352,27.26528 47.10944,25.93248 44.69696,23.26688 C42.2856,20.60128 41.07936,17.39024 41.07936,13.63264 C41.07936,9.77424001 42.27888,6.54976 44.67792,3.96032 C47.07696,1.37088 50.05392,0.0761600001 53.60768,0.0761600001 C57.03488,0.0761600001 59.90432,1.3776 62.21376,3.97936 C64.52432,6.58112 65.67904,9.81232001 65.67904,13.67072 Z M58.97696,14.28 C58.97696,9.22880001 58.38112,5.49584 57.1872,3.08448 C56.40096,1.51088 55.15664,0.723520001 53.45536,0.723520001 C51.73056,0.723520001 50.35296,1.82784 49.32368,4.03648 C48.29552,6.24512 47.78144,9.20304001 47.78144,12.90912 C47.78144,18.29072 48.69536,22.31488 50.5232,24.98048 C51.2848,26.09712 52.38912,26.656 53.83616,26.656 C55.51168,26.656 56.69216,25.85632 57.3776,24.25696 C58.44384,21.76944 58.97696,18.44416 58.97696,14.28 Z M82.3928001,12.68064 C82.3928001,13.41648 82.1766401,14.02016 81.7454401,14.48944 C81.3131201,14.95984 80.7553601,15.19392 80.0699201,15.19392 C78.6990401,15.19392 78.0136001,14.55888 78.0136001,13.28992 C78.0136001,12.85872 78.1782401,12.42752 78.5086401,11.9952 C78.5848001,11.8944 78.6228801,11.8048 78.6228801,11.72864 C78.6228801,11.50016 78.4571201,11.38592 78.1278401,11.38592 C77.2643201,11.38592 76.6046401,12.05792 76.1476801,13.40416 C75.8934401,14.16576 75.7668801,16.03168 75.7668801,19.00192 L75.7668801,21.78176 L75.8049601,25.1328 C75.8049601,25.81824 76.1476801,26.1856 76.8331201,26.23712 C77.2385601,26.26288 77.7212801,26.2752 78.2801601,26.2752 C78.5590401,26.30096 78.6990401,26.38944 78.6990401,26.54176 C78.6990401,26.74448 78.5848001,26.8464 78.3563201,26.8464 L77.5947201,26.8464 C77.3662401,26.82064 76.2619201,26.80832 74.2817601,26.80832 C74.3825601,26.80832 73.8113601,26.82064 72.5681601,26.8464 L70.7022401,26.88448 L69.25408,26.88448 C68.9629357,26.9115466 68.6706349,26.9242553 68.37824,26.92256 C68.09824,26.92256 67.95936,26.83296 67.95936,26.656 C67.95936,26.47792 68.13632,26.38944 68.49248,26.38944 C69.53296,26.36368 70.1612801,26.25616 70.3774401,26.06576 C70.5924801,25.87536 70.7011201,25.31088 70.7011201,24.3712 L70.6630401,14.0896 C70.6630401,13.2272 70.5420801,12.63024 70.3012801,12.29984 C70.0593601,11.96944 69.52064,11.76672 68.68288,11.69056 C68.02208,11.64016 67.648,11.60096 67.55952,11.57632 C67.46992,11.55056 67.42512,11.46208 67.42512,11.30976 C67.42512,11.15744 67.52704,11.08128 67.73088,11.08128 C67.95936,11.08128 68.1744,11.0936 68.37824,11.11936 L69.13984,11.11936 C71.0942401,11.11936 73.2009601,10.7128 75.4611201,9.90080001 C75.5876801,10.40816 75.6515201,10.9928 75.6515201,11.65248 L75.6515201,13.25184 C76.1331201,12.00864 76.6595201,11.13168 77.2307201,10.62432 C77.8019201,10.11696 78.5456001,9.86272001 79.4595201,9.86272001 C80.3219201,9.86272001 81.0275201,10.12928 81.5729601,10.6624 C82.1184001,11.19552 82.3905601,11.86864 82.3905601,12.68064 L82.3928001,12.68064 Z M99.4100801,22.16256 C99.4100801,22.72144 99.0796801,23.45728 98.4200001,24.3712 C96.9976001,26.3256 95.1451201,27.30336 92.8603201,27.30336 C90.2955201,27.30336 88.1899201,26.49136 86.5390401,24.86624 C84.8892801,23.24224 84.0638401,21.15904 84.0638401,18.62112 C84.0638401,16.1336 84.8635201,14.05824 86.4628801,12.39504 C88.0622401,10.73184 90.0547201,9.90080001 92.4414401,9.90080001 C94.0654401,9.90080001 95.4497601,10.25584 96.5921601,10.96704 C97.8611201,11.7544 98.6865601,12.88336 99.0673601,14.35616 C99.1681601,14.81312 99.2454401,15.35856 99.2958401,15.9936 C98.7123201,16.044 96.3636801,16.0832 92.2510401,16.10784 C91.6160001,16.10784 90.8174401,16.1336 89.8520001,16.184 C89.7825371,16.9564308 89.7444258,17.7313608 89.7377601,18.50688 C89.7377601,21.47712 90.3593601,23.58384 91.6036801,24.82816 C92.3395201,25.564 93.2411201,25.93248 94.3073601,25.93248 C95.1955201,25.93248 96.0523201,25.62784 96.8777601,25.01856 C97.7020779,24.4103112 98.3521012,23.5961407 98.7627201,22.6576 C98.9654401,22.176 99.1312001,21.93408 99.2577601,21.93408 C99.3585601,21.93408 99.4100801,22.01024 99.4100801,22.16256 Z M94.6120001,15.53664 C94.6377601,13.58224 94.4977601,12.22368 94.1931201,11.46208 C93.8884801,10.70048 93.3553601,10.31968 92.5937601,10.31968 C91.0448001,10.31968 90.1566401,12.05904 89.9281601,15.53664 C90.4612801,15.51088 91.5779201,15.49856 93.2792001,15.49856 C93.7865601,15.49856 94.2312001,15.51088 94.6120001,15.53664 Z M118.10288,24.79008 C118.10288,24.9928 117.90016,25.27168 117.4936,25.62784 C116.4016,26.61792 115.05648,27.11296 113.45712,27.11296 C112.41552,27.11296 111.66064,26.8968 111.19136,26.4656 C110.72096,26.0344 110.41072,25.25936 110.2584,24.14272 C109.116,26.2248 107.55472,27.26528 105.57456,27.26528 C104.48256,27.26528 103.60112,26.92256 102.928,26.23712 C102.256,25.55168 101.92,24.66352 101.92,23.57152 C101.92,20.3728 104.66064,18.48112 110.14416,17.8976 L110.14416,17.09792 C110.14416,14.55888 110.05456,12.99872 109.8776,12.41408 L109.83952,12.22368 C109.48448,10.95472 108.58288,10.31968 107.13584,10.31968 C106.29808,10.31968 105.62496,10.56048 105.1176,11.0432 C104.61024,11.5248 104.356,11.9952 104.356,12.45216 C104.356,12.7064 104.66064,12.85872 105.26992,12.90912 C106.18384,12.98528 106.6408,13.54416 106.6408,14.58464 C106.6408,15.14352 106.45712,15.60608 106.08864,15.97456 C105.72016,16.34304 105.24416,16.52672 104.66064,16.52672 C103.9248,16.52672 103.32112,16.30496 102.85184,15.86032 C102.38144,15.41568 102.14736,14.8512 102.14736,14.16576 C102.14736,13.07376 102.6928,12.08368 103.7848,11.19552 C104.8768,10.30736 106.3104,9.86272001 108.08784,9.86272001 C110.72768,9.86272001 112.56784,10.33312 113.60944,11.27168 C114.4472,12.05904 114.86608,13.42992 114.86608,15.38432 L114.86608,21.896 C114.86608,23.16496 114.8784,23.9008 114.90416,24.10464 C115.03072,25.17088 115.3992,25.704 116.00848,25.704 C116.43968,25.704 116.9728,25.39936 117.60784,24.79008 C117.7344,24.66352 117.83632,24.59968 117.91248,24.59968 C118.03904,24.59968 118.10288,24.66352 118.10288,24.79008 Z M110.14416,20.25856 L110.14416,18.39264 C107.68128,18.87424 106.4504,20.27088 106.4504,22.58144 C106.4504,24.35888 107.05968,25.24704 108.27824,25.24704 C108.96368,25.24704 109.4464,24.86624 109.72528,24.10464 C110.00528,23.34304 110.14416,22.06064 110.14416,20.25856 Z M128.72272,26.54176 C128.72272,26.74448 128.24112,26.8464 127.27568,26.8464 C127.0472,26.8464 126.33712,26.82064 125.1432,26.77024 C124.546942,26.7451286 123.950226,26.7324325 123.35344,26.73216 C122.79568,26.73216 121.75408,26.75792 120.23088,26.80832 L119.08848,26.8464 C118.53072,26.87216 118.25072,26.78256 118.25072,26.57984 C118.25072,26.37712 118.54304,26.28864 119.12656,26.31328 C120.01584,26.33904 120.52992,26.24944 120.6688,26.04672 C120.8088,25.844 120.87824,25.0824 120.87824,23.76192 L120.87824,3.69376 C120.87824,2.83136 120.78976,2.31616 120.61168,2.15152 C120.43472,1.98688 119.91392,1.904 119.0504,1.904 C118.41648,1.904 118.0984,1.8144 118.0984,1.63744 C118.0984,1.43472 118.4288,1.32048 119.08848,1.29472 C121.93216,1.19392 124.25504,0.761600001 126.05712,0 C126.03248,0.761600001 126.01904,5.21696 126.01904,13.36608 L126.01904,22.848 C126.01904,24.57392 126.06384,25.58304 126.15344,25.87536 C126.24192,26.16656 126.55216,26.30096 127.08528,26.2752 L128.22768,26.23712 C128.55808,26.23712 128.72272,26.33792 128.72272,26.54176 Z" id="icons/Client_02"></path>
                                </g>
                            </g>
                        </g>
                    </g>
                </g>
            </g>
        </g>
    </g>
</svg>