<?xml version="1.0" encoding="UTF-8"?>
<svg width="127px" height="21px" viewBox="0 0 127 21" version="1.1" xmlns="http://www.w3.org/2000/svg" xmlns:xlink="http://www.w3.org/1999/xlink">
    <!-- Generator: Sketch 52 (66869) - http://www.bohemiancoding.com/sketch -->
    <title>Horus</title>
    <desc>Created with Sketch.</desc>
    <g id="Sections" stroke="none" stroke-width="1" fill="none" fill-rule="evenodd">
        <g id="Sections-/-Clients-/-Brands-&amp;-Testimonial-/-Light" transform="translate(-1114.000000, -351.000000)" fill="#1A1A1A" fill-rule="nonzero">
            <g id="Outer">
                <g id="Inner" transform="translate(150.000000, 150.000000)">
                    <g id="Content" transform="translate(0.000000, 195.000000)">
                        <g id="Brands" transform="translate(50.000000, 0.000000)">
                            <g id="Row">
                                <g id="Horus" transform="translate(914.000000, 6.000000)">
                                    <path d="M22.96,20.272 L19.6,20.272 L19.6,11.284 L3.36,11.284 L3.36,20.272 L0,20.272 L0,0 L3.36,0 L3.36,8.23200001 L19.6,8.23200001 L19.6,0 L22.96,0 L22.96,20.272 Z M51.2931035,11.62 C51.2931035,14.4393104 50.0891035,16.7343448 47.6811035,18.508 C45.6274483,20.02 43.0611035,20.776 39.9811035,20.776 C36.9011035,20.776 34.3251035,20.02 32.2531035,18.508 C29.8451035,16.7536552 28.6411035,14.4576552 28.6411035,11.62 C28.6411035,8.82000001 29.8537931,6.54234483 32.2811035,4.788 C34.4091035,3.23834483 36.9754483,2.464 39.9811035,2.464 C42.9674483,2.464 45.5251035,3.23834483 47.6531035,4.788 C50.0794483,6.56165518 51.2931035,8.83834483 51.2931035,11.62 Z M47.7931035,11.62 C47.7931035,9.84634483 47.0651035,8.38551725 45.6091035,7.23751725 C44.1531035,6.08951725 42.2771035,5.516 39.980138,5.516 C37.6657931,5.516 35.7762759,6.09531035 34.3106207,7.25200001 C32.8459311,8.40965518 32.1131035,9.86565518 32.1131035,11.62 C32.1131035,13.4496552 32.8314483,14.9288276 34.2691035,16.0575173 C35.7057931,17.1871724 37.6097931,17.752 39.9811035,17.752 C42.3331035,17.752 44.2226207,17.1871724 45.6506207,16.0575173 C47.0795862,14.9278621 47.7931035,13.4496552 47.7931035,11.62 Z M76.7972414,20.272 L72.9342069,20.272 L68.4252414,13.944 L59.8862069,13.944 L59.8862069,20.272 L56.5262069,20.272 L56.5262069,3.052 L70.4422069,3.052 C72.2708966,3.052 73.7268966,3.54634483 74.8102069,4.536 C75.8915863,5.52565518 76.434207,6.85034483 76.434207,8.51200001 C76.434207,11.368 75.0052414,13.1136552 72.1502069,13.748 L76.798207,20.272 L76.7972414,20.272 Z M69.9382069,10.892 C71.9725518,10.892 72.9892414,10.1176552 72.9892414,8.56800001 C72.9892414,6.92565518 71.9078621,6.104 69.7422069,6.104 L59.8862069,6.104 L59.8862069,10.892 L69.9372414,10.892 L69.9382069,10.892 Z M101.77131,14.616 C101.77131,16.4263448 100.865655,17.9055173 99.0543449,19.0535173 C97.2440001,20.2024828 94.8176552,20.776 91.7743449,20.776 C88.7136552,20.776 86.2776552,20.2024828 84.4663449,19.0535173 C82.6560001,17.9055173 81.7503449,16.4273104 81.7503449,14.616 L81.7503449,3.052 L85.1103449,3.052 L85.1103449,13.944 C85.1103449,16.4833104 87.3320001,17.752 91.7743449,17.752 C96.1983449,17.752 98.4103449,16.4823448 98.4103449,13.944 L98.4103449,3.052 L101.770345,3.052 L101.770345,14.616 L101.77131,14.616 Z M123.439448,7.30800001 C121.199448,6.132 118.763448,5.544 116.131448,5.544 C112.305104,5.544 110.391448,6.22565518 110.391448,7.58800001 C110.391448,8.39034483 111.109793,8.91365518 112.547448,9.15600001 C114.507448,9.32400001 116.467448,9.50165518 118.427448,9.68800001 C121.246759,9.96800001 123.253104,10.472 124.447448,11.2 C125.773104,12.0023448 126.436414,13.2256552 126.436414,14.868 C126.436414,16.716 125.609931,18.144 123.957931,19.152 C122.305931,20.16 119.912414,20.664 116.775448,20.664 C112.351448,20.664 108.813793,19.656 106.164414,17.64 L107.983448,15.26 C110.353793,16.9206897 113.265793,17.752 116.719448,17.752 C118.660138,17.752 120.163448,17.5048276 121.228414,17.0104828 C122.291448,16.5151724 122.823448,15.8576552 122.823448,15.036 C122.823448,14.1216552 122.169793,13.4776552 120.863448,13.104 C120.135448,12.8983448 119.005793,12.7583448 117.475448,12.684 C115.085793,12.572 113.621104,12.488 113.079448,12.432 C110.951448,12.2263448 109.383448,11.7696552 108.375448,11.06 C107.367448,10.3503448 106.863448,9.31434483 106.863448,7.95200001 C106.863448,6.30965518 107.670621,5.00717242 109.285931,4.04648276 C110.900276,3.08482759 113.163448,2.604 116.075448,2.604 C119.957793,2.604 123.104414,3.444 125.511448,5.124 L123.439448,7.30800001 Z" id="icons/Client_06"></path>
                                </g>
                            </g>
                        </g>
                    </g>
                </g>
            </g>
        </g>
    </g>
</svg>