<?xml version="1.0" encoding="UTF-8"?>
<svg width="127px" height="15px" viewBox="0 0 127 15" version="1.1" xmlns="http://www.w3.org/2000/svg" xmlns:xlink="http://www.w3.org/1999/xlink">
    <!-- Generator: Sketch 52 (66869) - http://www.bohemiancoding.com/sketch -->
    <title>Pantheon</title>
    <desc>Created with Sketch.</desc>
    <g id="Sections" stroke="none" stroke-width="1" fill="none" fill-rule="evenodd">
        <g id="Sections-/-Clients-/-Brands-&amp;-Testimonial-/-Light" transform="translate(-927.000000, -353.000000)" fill="#1A1A1A" fill-rule="nonzero">
            <g id="Outer">
                <g id="Inner" transform="translate(150.000000, 150.000000)">
                    <g id="Content" transform="translate(0.000000, 195.000000)">
                        <g id="Brands" transform="translate(50.000000, 0.000000)">
                            <g id="Row">
                                <g id="Pantheon" transform="translate(727.000000, 8.000000)">
                                    <path d="M9.55500001,5.775 C10.1325,5.775 10.626875,5.66125 11.038125,5.43375 C11.449375,5.20625 11.655,4.76 11.655,4.095 C11.655,3.43 11.449375,2.98375 11.038125,2.75625 C10.626875,2.52875 10.1325,2.415 9.55500001,2.415 L3.96375,2.415 L3.96375,5.775 L9.55500001,5.775 Z M0,13.8075 L0,13.335 C0.6475,13.335 0.971250001,13.1775 0.971250001,12.8625 L0.971250001,0.945000001 C0.971250001,0.63 0.6475,0.4725 0,0.4725 L0,0 L9.24000001,0 C10.92,0 12.24125,0.310625 13.20375,0.931875001 C14.16625,1.553125 14.6475,2.6075 14.6475,4.095 C14.6475,5.5825 14.16625,6.636875 13.20375,7.25812501 C12.24125,7.87937501 10.92,8.19000001 9.24000001,8.19000001 L3.96375,8.19000001 L3.96375,12.8625 C3.96375,13.1775 4.24375,13.335 4.80375,13.335 L4.80375,13.8075 L0,13.8075 Z M25.039875,8.97750001 L22.913625,4.5675 L21.049875,8.97750001 L25.039875,8.97750001 Z M16.272375,13.335 C16.4755012,13.304028 16.6588525,13.1958977 16.78425,13.033125 C16.9155,12.866875 17.016125,12.71375 17.086125,12.57375 L20.997375,4.0425 C21.102375,3.7975 21.1855,3.600625 21.24675,3.451875 C21.308,3.303125 21.338625,3.15875 21.338625,3.01875 C21.338625,2.91375 21.31675,2.848125 21.273,2.821875 C21.2241589,2.79239005 21.1760205,2.76175653 21.128625,2.73 L21.128625,2.2575 L25.092375,2.2575 L25.092375,2.73 C25.0399449,2.76496961 24.9823767,2.79153953 24.92175,2.80875 C24.8605,2.82625 24.829875,2.89625 24.829875,3.01875 C24.829875,3.12375 24.86925,3.250625 24.948,3.399375 C25.02675,3.548125 25.109875,3.71875 25.197375,3.91125 L29.449875,12.83625 C29.537375,12.99375 29.633625,13.1075 29.738625,13.1775 C29.843625,13.2475 29.957375,13.3 30.079875,13.335 L30.079875,13.8075 L26.352375,13.8075 L26.352375,13.41375 C26.439875,13.41375 26.53175,13.3875 26.628,13.335 C26.72425,13.2825 26.772375,13.18625 26.772375,13.04625 C26.7735492,12.9475243 26.7557256,12.849494 26.719875,12.7575 C26.684875,12.67 26.641125,12.55625 26.588625,12.41625 L25.879875,10.92 L20.262375,10.92 L19.527375,12.3375 C19.457375,12.4775 19.4005,12.604375 19.35675,12.718125 C19.3167616,12.8139415 19.2945251,12.9162295 19.291125,13.02 C19.291125,13.16 19.334875,13.2475 19.422375,13.2825 C19.509875,13.3175 19.632375,13.335 19.789875,13.335 L19.789875,13.8075 L16.272375,13.8075 L16.272375,13.335 Z M32.963875,13.335 C33.278875,13.335 33.436375,13.20375 33.436375,12.94125 L33.436375,3.12375 C33.436375,2.86125 33.278875,2.73 32.963875,2.73 L32.963875,2.2575 L36.822625,2.2575 L36.822625,2.73 C36.700125,2.7475 36.638875,2.79125 36.638875,2.86125 C36.638875,2.94875 36.831375,3.185 37.216375,3.57 L43.516375,10.2375 L43.516375,3.12375 C43.516375,2.86125 43.341375,2.73 42.991375,2.73 L42.991375,2.2575 L46.193875,2.2575 L46.193875,2.73 C45.878875,2.73 45.721375,2.86125 45.721375,3.12375 L45.721375,12.94125 C45.721375,13.20375 45.878875,13.335 46.193875,13.335 L46.193875,13.8075 L42.781375,13.8075 L42.781375,13.335 C42.903875,13.335 42.965125,13.29125 42.965125,13.20375 C42.965125,13.13375 42.882,13.01125 42.71575,12.83625 C42.5495,12.66125 42.361375,12.46 42.151375,12.2325 L35.641375,5.3025 L35.641375,12.94125 C35.641375,13.20375 35.825125,13.335 36.192625,13.335 L36.192625,13.8075 L32.963875,13.8075 L32.963875,13.335 Z M53.62,13.335 C53.7075,13.335 53.795,13.304375 53.8825,13.243125 C53.97,13.181875 54.01375,13.08125 54.01375,12.94125 L54.01375,4.2 L50.60125,4.2 C50.46125,4.2 50.33,4.235 50.2075,4.305 C50.085,4.375 50.02375,4.48875 50.02375,4.64625 L49.55125,4.64625 L49.55125,1.6275 L50.02375,1.6275 C50.02375,1.8725 50.085,2.03875 50.2075,2.12625 C50.33,2.21375 50.46125,2.2575 50.60125,2.2575 L59.94625,2.2575 C60.08625,2.2575 60.2175,2.21375 60.34,2.12625 C60.4625,2.03875 60.52375,1.8725 60.52375,1.6275 L60.99625,1.6275 L60.99625,4.64625 L60.52375,4.64625 C60.52375,4.48875 60.4625,4.375 60.34,4.305 C60.220364,4.2357493 60.0844824,4.1995142 59.94625,4.2 L56.53375,4.2 L56.53375,12.94125 C56.53375,13.20375 56.69125,13.335 57.00625,13.335 L57.00625,13.8075 L53.62,13.8075 L53.62,13.335 Z M67.424875,12.94125 C67.424875,13.08125 67.46425,13.181875 67.543,13.243125 C67.62175,13.304375 67.713625,13.335 67.818625,13.335 L67.818625,13.8075 L64.511125,13.8075 L64.511125,13.335 C64.616125,13.335 64.708,13.304375 64.78675,13.243125 C64.8655,13.181875 64.904875,13.08125 64.904875,12.94125 L64.904875,3.12375 C64.904875,2.98375 64.8655,2.883125 64.78675,2.821875 C64.7080904,2.76062128 64.610805,2.7281928 64.511125,2.73 L64.511125,2.2575 L67.818625,2.2575 L67.818625,2.73 C67.7189451,2.7281928 67.6216597,2.76062128 67.543,2.821875 C67.46425,2.883125 67.424875,2.98375 67.424875,3.12375 L67.424875,6.825 L74.4598751,6.825 L74.4598751,3.12375 C74.4598751,2.98375 74.4205001,2.883125 74.3417501,2.821875 C74.2630904,2.76062128 74.165805,2.7281928 74.0661251,2.73 L74.0661251,2.2575 L77.3736251,2.2575 L77.3736251,2.73 C77.2739451,2.7281928 77.1766597,2.76062128 77.0980001,2.821875 C77.0192501,2.883125 76.9798751,2.98375 76.9798751,3.12375 L76.9798751,12.94125 C76.9798751,13.08125 77.0192501,13.181875 77.0980001,13.243125 C77.1767501,13.304375 77.2686251,13.335 77.3736251,13.335 L77.3736251,13.8075 L74.0661251,13.8075 L74.0661251,13.335 C74.1711251,13.335 74.2630001,13.304375 74.3417501,13.243125 C74.4205001,13.181875 74.4598751,13.08125 74.4598751,12.94125 L74.4598751,8.97750001 L67.424875,8.97750001 L67.424875,12.94125 Z M92.3588751,4.69875 C92.3588751,4.36625 92.0876251,4.2 91.5451251,4.2 L85.1401251,4.2 L85.1401251,6.825 L89.1826251,6.825 C89.4801251,6.825 89.6988751,6.803125 89.8388751,6.759375 C89.9788751,6.715625 90.0488751,6.5975 90.0488751,6.405 L90.5213751,6.405 L90.5213751,9.18750001 L89.9963751,9.18750001 C90.0488751,8.99500001 89.9788751,8.87687501 89.7863751,8.83312501 C89.5938751,8.78937501 89.3226251,8.76750001 88.9726251,8.76750001 L85.1401251,8.76750001 L85.1401251,11.865 L91.8601251,11.865 C92.0701251,11.865 92.2451251,11.816875 92.3851251,11.720625 C92.5251251,11.624375 92.5951251,11.4975 92.5951251,11.34 L93.0676251,11.34 L93.0676251,14.09625 L92.5951251,14.09625 C92.5951251,13.93875 92.5251251,13.85125 92.3851251,13.83375 C92.2451251,13.81625 92.0701251,13.8075 91.8601251,13.8075 L82.2263751,13.8075 L82.2263751,13.335 C82.3138751,13.335 82.4013751,13.304375 82.4888751,13.243125 C82.5763751,13.181875 82.6201251,13.08125 82.6201251,12.94125 L82.6201251,3.12375 C82.6201251,2.98375 82.5763751,2.883125 82.4888751,2.821875 C82.4131086,2.76460347 82.3213195,2.73247727 82.2263751,2.73 L82.2263751,2.2575 L91.5451251,2.2575 C92.0876251,2.2575 92.3588751,2.1 92.3588751,1.785 L92.8313751,1.785 L92.8313751,4.69875 L92.3588751,4.69875 Z M103.04,4.0425 C102.48,4.0425 101.933125,4.134375 101.399375,4.318125 C100.879747,4.49410392 100.395392,4.76072126 99.9687501,5.105625 C99.5487501,5.446875 99.2118751,5.8625 98.9581251,6.3525 C98.7043751,6.8425 98.5775001,7.40250001 98.5775001,8.03250001 C98.5775001,8.66250001 98.7043751,9.22250001 98.9581251,9.71250001 C99.2118751,10.2025 99.5487501,10.618125 99.9687501,10.959375 C100.38875,11.300625 100.865625,11.563125 101.399375,11.746875 C102.462074,12.1154529 103.617926,12.1154529 104.680625,11.746875 C105.200253,11.5708961 105.684608,11.3042788 106.11125,10.959375 C106.53125,10.618125 106.868125,10.2025 107.121875,9.71250001 C107.375625,9.22250001 107.5025,8.66250001 107.5025,8.03250001 C107.5025,7.40250001 107.375625,6.8425 107.121875,6.3525 C106.875203,5.87122943 106.531023,5.44659273 106.11125,5.105625 C105.684608,4.76072126 105.200253,4.49410392 104.680625,4.318125 C104.152947,4.13540076 103.598419,4.04224001 103.04,4.0425 Z M103.04,2.1 C104.0025,2.1 104.908125,2.2225 105.756875,2.4675 C106.605625,2.7125 107.345,3.08 107.975,3.57 C108.608613,4.06443382 109.120469,4.69751835 109.47125,5.420625 C109.83875,6.164375 110.0225,7.03500001 110.0225,8.03250001 C110.0225,9.03000001 109.83875,9.90062501 109.47125,10.644375 C109.120469,11.3674817 108.608613,12.0005662 107.975,12.495 C107.345,12.985 106.605625,13.339375 105.756875,13.558125 C104.908125,13.776875 104.0025,13.88625 103.04,13.88625 C102.0775,13.88625 101.171875,13.776875 100.323125,13.558125 C99.4743751,13.339375 98.7350001,12.985 98.1050001,12.495 C97.4713868,12.0005662 96.9595312,11.3674817 96.6087501,10.644375 C96.2412501,9.90062501 96.0575001,9.03000001 96.0575001,8.03250001 C96.0575001,7.03500001 96.2412501,6.164375 96.6087501,5.420625 C96.9595312,4.69751835 97.4713868,4.06443382 98.1050001,3.57 C98.7350001,3.08 99.4743751,2.7125 100.323125,2.4675 C101.171875,2.2225 102.0775,2.1 103.04,2.1 Z M113.563625,13.335 C113.878625,13.335 114.036125,13.20375 114.036125,12.94125 L114.036125,3.12375 C114.036125,2.86125 113.878625,2.73 113.563625,2.73 L113.563625,2.2575 L117.422375,2.2575 L117.422375,2.73 C117.299875,2.7475 117.238625,2.79125 117.238625,2.86125 C117.238625,2.94875 117.431125,3.185 117.816125,3.57 L124.116125,10.2375 L124.116125,3.12375 C124.116125,2.86125 123.941125,2.73 123.591125,2.73 L123.591125,2.2575 L126.793625,2.2575 L126.793625,2.73 C126.478625,2.73 126.321125,2.86125 126.321125,3.12375 L126.321125,12.94125 C126.321125,13.20375 126.478625,13.335 126.793625,13.335 L126.793625,13.8075 L123.381125,13.8075 L123.381125,13.335 C123.503625,13.335 123.564875,13.29125 123.564875,13.20375 C123.564875,13.13375 123.48175,13.01125 123.3155,12.83625 C123.14925,12.66125 122.961125,12.46 122.751125,12.2325 L116.241125,5.3025 L116.241125,12.94125 C116.241125,13.20375 116.424875,13.335 116.792375,13.335 L116.792375,13.8075 L113.563625,13.8075 L113.563625,13.335 Z" id="icons/Client_04"></path>
                                </g>
                            </g>
                        </g>
                    </g>
                </g>
            </g>
        </g>
    </g>
</svg>