<?xml version="1.0" encoding="UTF-8"?>
<svg width="420px" height="156px" viewBox="0 0 420 156" version="1.1" xmlns="http://www.w3.org/2000/svg" xmlns:xlink="http://www.w3.org/1999/xlink">
    <!-- Generator: Sketch 52 (66869) - http://www.bohemiancoding.com/sketch -->
    <title>Logo</title>
    <desc>Created with Sketch.</desc>
    <g id="Logo" stroke="none" stroke-width="1" fill="none" fill-rule="evenodd">
        <path d="M78.8,37.2 C78.8,59.9 62,76.9 39.3,76.9 C17.5,76.9 0,60 0,38.1 C0,15.9 17.9,0 39.6,0 C55.6,0 72.1,10.4 76.6,26.2 L55.4,26.2 C52,20.1 46.1,16.6 39.1,16.6 C27,16.6 18.9,26.4 18.9,38.1 C18.9,50.2 26.6,60.3 39.2,60.3 C47.3,60.3 54.6,56.6 56.9,48.4 L34.8,48.4 L34.8,33.3 L78.7,33.3 C78.8,34.6 78.8,35.9 78.8,37.2 Z M137.744444,48.3 C137.744444,49.8 137.644444,51.2 137.344444,52.7 L95.7444442,52.7 C96.7444442,59.3 102.244444,63.2 108.744444,63.2 C113.244444,63.2 116.144444,61.4 118.844444,58 L135.844444,58 C131.044444,69.1 121.244444,77.2 108.744444,77.2 C92.5444442,77.2 79.3444442,64 79.3444442,47.8 C79.3444442,31.7 92.1444442,18 108.444444,18 C125.444444,18 137.744444,31.6 137.744444,48.3 Z M121.144444,41.5 C119.844444,35.5 114.544444,32 108.544444,32 C102.544444,32 97.2444442,35.5 95.9444442,41.5 L121.144444,41.5 Z M192.788888,75.4 L176.188888,75.4 L176.188888,45.1 C176.188888,38.9 174.988888,33.6 167.488888,33.6 C159.788888,33.6 157.988888,38.6 157.988888,45.2 L157.988888,75.4 L141.388888,75.4 L141.388888,19.9 L156.888888,19.9 L156.888888,25.8 L157.088888,25.8 C160.588888,20.1 165.488888,18 172.188888,18 C176.888888,18 182.788888,19.8 186.388888,22.8 C191.688888,27.2 192.788888,34.2 192.788888,40.7 L192.788888,75.4 Z M226.933333,32.5 L218.933333,32.5 L218.933333,75.4 L202.333333,75.4 L202.333333,32.5 L194.133333,32.5 L194.133333,19.9 L202.333333,19.9 L202.333333,1.4 L218.933333,1.4 L218.933333,19.9 L226.933333,19.9 L226.933333,32.5 Z M245.177777,14 L228.577777,14 L228.577777,1.4 L245.177777,1.4 L245.177777,14 Z M245.177777,75.4 L228.577777,75.4 L228.577777,19.9 L245.177777,19.9 L245.177777,75.4 Z M303.022221,75.4 L287.322221,75.4 L287.322221,69.5 L287.122221,69.5 C284.222221,75.5 278.922221,77.2 272.722221,77.2 C266.622221,77.2 260.422221,75.1 256.422221,70.2 C251.922221,64.6 251.422221,60 251.422221,53.1 L251.422221,19.9 L268.022221,19.9 L268.022221,50.6 C268.022221,56.9 269.422221,61.7 276.922221,61.7 C283.822221,61.7 286.422221,56.8 286.422221,50.4 L286.422221,19.9 L303.022221,19.9 L303.022221,75.4 Z M394.666665,75.4 L378.066665,75.4 L378.066665,45.9 C378.066665,39.8 377.266665,33.6 369.566665,33.6 C362.166665,33.6 360.366665,38.8 360.366665,45.1 L360.366665,75.4 L343.766665,75.4 L343.766665,45.2 C343.766665,39.5 342.466665,33.6 335.466665,33.6 C327.766665,33.6 326.066665,39.4 326.066665,45.9 L326.066665,75.4 L309.466665,75.4 L309.466665,19.9 L324.966665,19.9 L324.966665,25.8 L325.166665,25.8 C328.366665,20.1 334.166665,18 340.466665,18 C347.666665,18 353.066665,21.6 356.466665,27.9 C360.466665,21.6 366.566665,18 374.066665,18 C379.566665,18 384.766665,19.6 388.666665,23.6 C394.966665,30 394.666665,36.6 394.666665,45.1 L394.666665,75.4 Z M419.211109,75.4 L401.911109,75.4 L401.911109,58.4 L419.211109,58.4 L419.211109,75.4 Z" id="Gentium." fill="#1A1A1A"></path>
        <path d="M78.8,116.2 C78.8,138.9 62,155.9 39.3,155.9 C17.5,155.9 0,139 0,117.1 C0,94.9 17.9,79 39.6,79 C55.6,79 72.1,89.4 76.6,105.2 L55.4,105.2 C52,99.1 46.1,95.6 39.1,95.6 C27,95.6 18.9,105.4 18.9,117.1 C18.9,129.2 26.6,139.3 39.2,139.3 C47.3,139.3 54.6,135.6 56.9,127.4 L34.8,127.4 L34.8,112.3 L78.7,112.3 C78.8,113.6 78.8,114.9 78.8,116.2 Z M137.744444,127.3 C137.744444,128.8 137.644444,130.2 137.344444,131.7 L95.7444442,131.7 C96.7444442,138.3 102.244444,142.2 108.744444,142.2 C113.244444,142.2 116.144444,140.4 118.844444,137 L135.844444,137 C131.044444,148.1 121.244444,156.2 108.744444,156.2 C92.5444442,156.2 79.3444442,143 79.3444442,126.8 C79.3444442,110.7 92.1444442,97 108.444444,97 C125.444444,97 137.744444,110.6 137.744444,127.3 Z M121.144444,120.5 C119.844444,114.5 114.544444,111 108.544444,111 C102.544444,111 97.2444442,114.5 95.9444442,120.5 L121.144444,120.5 Z M192.788888,154.4 L176.188888,154.4 L176.188888,124.1 C176.188888,117.9 174.988888,112.6 167.488888,112.6 C159.788888,112.6 157.988888,117.6 157.988888,124.2 L157.988888,154.4 L141.388888,154.4 L141.388888,98.9 L156.888888,98.9 L156.888888,104.8 L157.088888,104.8 C160.588888,99.1 165.488888,97 172.188888,97 C176.888888,97 182.788888,98.8 186.388888,101.8 C191.688888,106.2 192.788888,113.2 192.788888,119.7 L192.788888,154.4 Z M226.933333,111.5 L218.933333,111.5 L218.933333,154.4 L202.333333,154.4 L202.333333,111.5 L194.133333,111.5 L194.133333,98.9 L202.333333,98.9 L202.333333,80.4 L218.933333,80.4 L218.933333,98.9 L226.933333,98.9 L226.933333,111.5 Z M245.177777,93 L228.577777,93 L228.577777,80.4 L245.177777,80.4 L245.177777,93 Z M245.177777,154.4 L228.577777,154.4 L228.577777,98.9 L245.177777,98.9 L245.177777,154.4 Z M303.022221,154.4 L287.322221,154.4 L287.322221,148.5 L287.122221,148.5 C284.222221,154.5 278.922221,156.2 272.722221,156.2 C266.622221,156.2 260.422221,154.1 256.422221,149.2 C251.922221,143.6 251.422221,139 251.422221,132.1 L251.422221,98.9 L268.022221,98.9 L268.022221,129.6 C268.022221,135.9 269.422221,140.7 276.922221,140.7 C283.822221,140.7 286.422221,135.8 286.422221,129.4 L286.422221,98.9 L303.022221,98.9 L303.022221,154.4 Z M394.666665,154.4 L378.066665,154.4 L378.066665,124.9 C378.066665,118.8 377.266665,112.6 369.566665,112.6 C362.166665,112.6 360.366665,117.8 360.366665,124.1 L360.366665,154.4 L343.766665,154.4 L343.766665,124.2 C343.766665,118.5 342.466665,112.6 335.466665,112.6 C327.766665,112.6 326.066665,118.4 326.066665,124.9 L326.066665,154.4 L309.466665,154.4 L309.466665,98.9 L324.966665,98.9 L324.966665,104.8 L325.166665,104.8 C328.366665,99.1 334.166665,97 340.466665,97 C347.666665,97 353.066665,100.6 356.466665,106.9 C360.466665,100.6 366.566665,97 374.066665,97 C379.566665,97 384.766665,98.6 388.666665,102.6 C394.966665,109 394.666665,115.6 394.666665,124.1 L394.666665,154.4 Z M419.211109,154.4 L401.911109,154.4 L401.911109,137.4 L419.211109,137.4 L419.211109,154.4 Z" id="Gentium.-Copy" fill="#FFFFFF"></path>
    </g>
</svg>